# File produced by Open Asset Import Library (http://www.assimp.sf.net)
# (assimp v3.1.193236683)

mtllib signify_brick.mtl

# 8 vertex positions
v  -249 -100 -100
v  -249 -100 100
v  -249 100 100
v  -249 100 -100
v  249 -100 -100
v  249 100 -100
v  249 -100 100
v  249 100 100

# 14 UV coordinates
vt 0.375 0.25 0
vt 0.375 0 0
vt 0.625 0 0
vt 0.625 0.25 0
vt 0.375 0.5 0
vt 0.625 0.5 0
vt 0.375 0.75 0
vt 0.625 0.75 0
vt 0.375 1 0
vt 0.625 1 0
vt 0.125 0.75 0
vt 0.125 0.5 0
vt 0.875 0.5 0
vt 0.875 0.75 0

# 6 vertex normals
vn -1 0 -0
vn 0 -1.62921e-07 -1
vn 1 0 0
vn 0 1.62921e-07 1
vn 0 -1 1.62921e-07
vn 0 1 -1.62921e-07

# Mesh 'Cube_Cube' with 12 faces
g Cube_Cube
usemtl DefaultMaterial
f  1/1/1 2/2/1 3/3/1
f  3/3/1 4/4/1 1/1/1
f  5/5/2 1/1/2 4/4/2
f  4/4/2 6/6/2 5/5/2
f  7/7/3 5/5/3 6/6/3
f  6/6/3 8/8/3 7/7/3
f  2/9/4 7/7/4 8/8/4
f  8/8/4 3/10/4 2/9/4
f  2/11/5 1/12/5 5/5/5
f  5/5/5 7/7/5 2/11/5
f  8/8/6 6/6/6 4/13/6
f  4/13/6 3/14/6 8/8/6

